<mxfile host="app.diagrams.net" modified="2023-02-12T10:12:29.103Z" agent="5.0 (Windows NT 10.0; Win64; x64) AppleWebKit/537.36 (KHTML, like Gecko) Chrome/109.0.0.0 Safari/537.36" etag="MNQQQMMlGLHJohaphhAZ" version="20.8.20" type="github">
  <diagram id="xvybnfLSMPUwnvf81L82" name="Страница 2">
    <mxGraphModel dx="1434" dy="796" grid="0" gridSize="10" guides="1" tooltips="1" connect="1" arrows="1" fold="1" page="1" pageScale="1" pageWidth="827" pageHeight="1169" background="#FFE599" math="0" shadow="0">
      <root>
        <mxCell id="0" />
        <mxCell id="1" parent="0" />
        <mxCell id="wQMhWt9WpPdBNZ-DjqCI-1" value="AddressBook" style="swimlane;fontStyle=1;align=center;verticalAlign=top;childLayout=stackLayout;horizontal=1;startSize=26;horizontalStack=0;resizeParent=1;resizeParentMax=0;resizeLast=0;collapsible=1;marginBottom=0;rounded=0;fontFamily=Helvetica;fillColor=#e1d5e7;strokeColor=#9673a6;" parent="1" vertex="1">
          <mxGeometry x="450" y="210" width="160" height="180" as="geometry">
            <mxRectangle x="450" y="100" width="110" height="30" as="alternateBounds" />
          </mxGeometry>
        </mxCell>
        <mxCell id="wQMhWt9WpPdBNZ-DjqCI-2" value="data" style="text;strokeColor=#666666;fillColor=#f5f5f5;align=left;verticalAlign=top;spacingLeft=4;spacingRight=4;overflow=hidden;rotatable=0;points=[[0,0.5],[1,0.5]];portConstraint=eastwest;fontFamily=Helvetica;fontColor=#333333;" parent="wQMhWt9WpPdBNZ-DjqCI-1" vertex="1">
          <mxGeometry y="26" width="160" height="26" as="geometry" />
        </mxCell>
        <mxCell id="wQMhWt9WpPdBNZ-DjqCI-3" value="" style="line;strokeWidth=1;fillColor=none;align=left;verticalAlign=middle;spacingTop=-1;spacingLeft=3;spacingRight=3;rotatable=0;labelPosition=right;points=[];portConstraint=eastwest;strokeColor=inherit;rounded=0;fontFamily=Helvetica;fontColor=none;" parent="wQMhWt9WpPdBNZ-DjqCI-1" vertex="1">
          <mxGeometry y="52" width="160" height="8" as="geometry" />
        </mxCell>
        <mxCell id="wQMhWt9WpPdBNZ-DjqCI-4" value="add_record()&#xa;remove_record()&#xa;show_records()&#xa;iterator()&#xa;serialize()&#xa;deserialize()&#xa;find_info_by_name()&#xa;find_info_by_phone()" style="text;strokeColor=#666666;fillColor=#f5f5f5;align=left;verticalAlign=top;spacingLeft=4;spacingRight=4;overflow=hidden;rotatable=0;points=[[0,0.5],[1,0.5]];portConstraint=eastwest;fontFamily=Helvetica;fontColor=#333333;" parent="wQMhWt9WpPdBNZ-DjqCI-1" vertex="1">
          <mxGeometry y="60" width="160" height="120" as="geometry" />
        </mxCell>
        <mxCell id="wQMhWt9WpPdBNZ-DjqCI-5" value="NoteBook" style="swimlane;fontStyle=1;align=center;verticalAlign=top;childLayout=stackLayout;horizontal=1;startSize=26;horizontalStack=0;resizeParent=1;resizeParentMax=0;resizeLast=0;collapsible=1;marginBottom=0;rounded=0;fontFamily=Helvetica;fillColor=#e1d5e7;strokeColor=#9673a6;" parent="1" vertex="1">
          <mxGeometry x="170" y="210" width="160" height="370" as="geometry" />
        </mxCell>
        <mxCell id="wQMhWt9WpPdBNZ-DjqCI-6" value="data" style="text;strokeColor=#666666;fillColor=#f5f5f5;align=left;verticalAlign=top;spacingLeft=4;spacingRight=4;overflow=hidden;rotatable=0;points=[[0,0.5],[1,0.5]];portConstraint=eastwest;fontFamily=Helvetica;fontColor=#333333;" parent="wQMhWt9WpPdBNZ-DjqCI-5" vertex="1">
          <mxGeometry y="26" width="160" height="26" as="geometry" />
        </mxCell>
        <mxCell id="wQMhWt9WpPdBNZ-DjqCI-7" value="" style="line;strokeWidth=1;fillColor=none;align=left;verticalAlign=middle;spacingTop=-1;spacingLeft=3;spacingRight=3;rotatable=0;labelPosition=right;points=[];portConstraint=eastwest;strokeColor=inherit;rounded=0;fontFamily=Helvetica;fontColor=none;" parent="wQMhWt9WpPdBNZ-DjqCI-5" vertex="1">
          <mxGeometry y="52" width="160" height="8" as="geometry" />
        </mxCell>
        <mxCell id="wQMhWt9WpPdBNZ-DjqCI-8" value="__init__&#xa;__repr__&#xa;add_note&#xa;change_name&#xa;change_tag&#xa;change_note&#xa;change_status&#xa;show_record&#xa;show_note&#xa;delete_note&#xa;dellete_notes_by_status&#xa;delete_tag&#xa;add_tag&#xa;find_info_by_name&#xa;find_info_by_tag&#xa;find_info_by_status&#xa;get_tags&#xa;change_tag&#xa;serialize&#xa;deserialize&#xa;show_records" style="text;strokeColor=#666666;fillColor=#f5f5f5;align=left;verticalAlign=top;spacingLeft=4;spacingRight=4;overflow=hidden;rotatable=0;points=[[0,0.5],[1,0.5]];portConstraint=eastwest;fontFamily=Helvetica;fontColor=#333333;" parent="wQMhWt9WpPdBNZ-DjqCI-5" vertex="1">
          <mxGeometry y="60" width="160" height="310" as="geometry" />
        </mxCell>
        <mxCell id="88oe1DhhZYXy7eTUHFVm-1" value="&lt;b&gt;UserDict&lt;/b&gt;" style="html=1;rounded=0;fontFamily=Helvetica;fillColor=#e1d5e7;strokeColor=#9673a6;" parent="1" vertex="1">
          <mxGeometry x="330" y="70" width="120" height="40" as="geometry" />
        </mxCell>
        <mxCell id="ST6IAGIJtiSfXXHStmwK-1" value="Record" style="swimlane;fontStyle=1;align=center;verticalAlign=top;childLayout=stackLayout;horizontal=1;startSize=26;horizontalStack=0;resizeParent=1;resizeParentMax=0;resizeLast=0;collapsible=1;marginBottom=0;rounded=0;fontFamily=Helvetica;fillColor=#e1d5e7;strokeColor=#9673a6;" parent="1" vertex="1">
          <mxGeometry x="390" y="500" width="160" height="256" as="geometry" />
        </mxCell>
        <mxCell id="ST6IAGIJtiSfXXHStmwK-2" value="name&#xa;address&#xa;phone&#xa;email&#xa;birthday" style="text;strokeColor=#666666;fillColor=#f5f5f5;align=left;verticalAlign=top;spacingLeft=4;spacingRight=4;overflow=hidden;rotatable=0;points=[[0,0.5],[1,0.5]];portConstraint=eastwest;fontFamily=Helvetica;fontColor=#333333;" parent="ST6IAGIJtiSfXXHStmwK-1" vertex="1">
          <mxGeometry y="26" width="160" height="80" as="geometry" />
        </mxCell>
        <mxCell id="ST6IAGIJtiSfXXHStmwK-3" value="" style="line;strokeWidth=1;fillColor=none;align=left;verticalAlign=middle;spacingTop=-1;spacingLeft=3;spacingRight=3;rotatable=0;labelPosition=right;points=[];portConstraint=eastwest;strokeColor=inherit;rounded=0;fontFamily=Helvetica;fontColor=none;" parent="ST6IAGIJtiSfXXHStmwK-1" vertex="1">
          <mxGeometry y="106" width="160" height="8" as="geometry" />
        </mxCell>
        <mxCell id="ST6IAGIJtiSfXXHStmwK-4" value="__init__&#xa;__str__&#xa;__repr__&#xa;add_phone&#xa;add_birthday&#xa;change_phone&#xa;delete_phone&#xa;show_contact&#xa;days_to_birthday" style="text;strokeColor=#666666;fillColor=#f5f5f5;align=left;verticalAlign=top;spacingLeft=4;spacingRight=4;overflow=hidden;rotatable=0;points=[[0,0.5],[1,0.5]];portConstraint=eastwest;fontFamily=Helvetica;fontColor=#333333;" parent="ST6IAGIJtiSfXXHStmwK-1" vertex="1">
          <mxGeometry y="114" width="160" height="142" as="geometry" />
        </mxCell>
        <mxCell id="tnp_LjGawpypGhr_8xJw-12" value="Field" style="swimlane;fontStyle=1;align=center;verticalAlign=top;childLayout=stackLayout;horizontal=1;startSize=26;horizontalStack=0;resizeParent=1;resizeParentMax=0;resizeLast=0;collapsible=1;marginBottom=0;rounded=0;fontFamily=Helvetica;fillColor=#e1d5e7;strokeColor=#9673a6;" parent="1" vertex="1">
          <mxGeometry x="380" y="990" width="160" height="130" as="geometry" />
        </mxCell>
        <mxCell id="tnp_LjGawpypGhr_8xJw-13" value="__value&#xa;value" style="text;strokeColor=#666666;fillColor=#f5f5f5;align=left;verticalAlign=top;spacingLeft=4;spacingRight=4;overflow=hidden;rotatable=0;points=[[0,0.5],[1,0.5]];portConstraint=eastwest;fontFamily=Helvetica;fontColor=#333333;" parent="tnp_LjGawpypGhr_8xJw-12" vertex="1">
          <mxGeometry y="26" width="160" height="44" as="geometry" />
        </mxCell>
        <mxCell id="tnp_LjGawpypGhr_8xJw-14" value="" style="line;strokeWidth=1;fillColor=none;align=left;verticalAlign=middle;spacingTop=-1;spacingLeft=3;spacingRight=3;rotatable=0;labelPosition=right;points=[];portConstraint=eastwest;strokeColor=inherit;rounded=0;fontFamily=Helvetica;fontColor=none;" parent="tnp_LjGawpypGhr_8xJw-12" vertex="1">
          <mxGeometry y="70" width="160" height="8" as="geometry" />
        </mxCell>
        <mxCell id="tnp_LjGawpypGhr_8xJw-15" value="__init__()&#xa;value(): setter&#xa;value(): getter" style="text;strokeColor=#666666;fillColor=#f5f5f5;align=left;verticalAlign=top;spacingLeft=4;spacingRight=4;overflow=hidden;rotatable=0;points=[[0,0.5],[1,0.5]];portConstraint=eastwest;fontFamily=Helvetica;fontColor=#333333;" parent="tnp_LjGawpypGhr_8xJw-12" vertex="1">
          <mxGeometry y="78" width="160" height="52" as="geometry" />
        </mxCell>
        <mxCell id="tnp_LjGawpypGhr_8xJw-26" style="edgeStyle=none;rounded=0;orthogonalLoop=1;jettySize=auto;html=1;exitX=0.563;exitY=0;exitDx=0;exitDy=0;labelBackgroundColor=default;labelBorderColor=none;strokeColor=#000000;strokeWidth=1;fontFamily=Helvetica;fontColor=none;startArrow=none;startFill=0;endArrow=block;endFill=0;endSize=17;exitPerimeter=0;" parent="1" source="wQMhWt9WpPdBNZ-DjqCI-5" edge="1">
          <mxGeometry relative="1" as="geometry">
            <mxPoint x="390" y="110" as="targetPoint" />
            <Array as="points">
              <mxPoint x="390" y="210" />
              <mxPoint x="390" y="170" />
              <mxPoint x="390" y="180" />
            </Array>
          </mxGeometry>
        </mxCell>
        <mxCell id="tnp_LjGawpypGhr_8xJw-28" style="edgeStyle=none;rounded=0;orthogonalLoop=1;jettySize=auto;html=1;entryX=0.5;entryY=0.992;entryDx=0;entryDy=0;entryPerimeter=0;labelBackgroundColor=default;labelBorderColor=none;strokeColor=#000000;strokeWidth=1;fontFamily=Helvetica;fontColor=none;startArrow=none;startFill=0;endArrow=classic;endFill=1;endSize=6;" parent="1" target="wQMhWt9WpPdBNZ-DjqCI-4" edge="1">
          <mxGeometry relative="1" as="geometry">
            <mxPoint x="530" y="500" as="sourcePoint" />
          </mxGeometry>
        </mxCell>
        <mxCell id="tnp_LjGawpypGhr_8xJw-27" style="edgeStyle=none;rounded=0;orthogonalLoop=1;jettySize=auto;html=1;labelBackgroundColor=default;labelBorderColor=none;strokeColor=#000000;strokeWidth=1;fontFamily=Helvetica;fontColor=none;startArrow=none;startFill=0;endArrow=block;endFill=0;endSize=17;" parent="1" edge="1">
          <mxGeometry relative="1" as="geometry">
            <mxPoint x="390" y="110" as="targetPoint" />
            <mxPoint x="540" y="210" as="sourcePoint" />
            <Array as="points">
              <mxPoint x="390" y="210" />
            </Array>
          </mxGeometry>
        </mxCell>
        <mxCell id="1ih4mLv8TYNWShQSfhKS-29" style="edgeStyle=orthogonalEdgeStyle;rounded=0;orthogonalLoop=1;jettySize=auto;html=1;exitX=0;exitY=0.5;exitDx=0;exitDy=0;" parent="1" source="1ih4mLv8TYNWShQSfhKS-1" edge="1">
          <mxGeometry relative="1" as="geometry">
            <mxPoint x="550" y="516" as="targetPoint" />
          </mxGeometry>
        </mxCell>
        <mxCell id="1ih4mLv8TYNWShQSfhKS-35" style="edgeStyle=orthogonalEdgeStyle;rounded=0;orthogonalLoop=1;jettySize=auto;html=1;exitX=1;exitY=0.5;exitDx=0;exitDy=0;entryX=0.819;entryY=1;entryDx=0;entryDy=0;entryPerimeter=0;endArrow=block;endFill=0;endSize=17;" parent="1" source="1ih4mLv8TYNWShQSfhKS-1" target="tnp_LjGawpypGhr_8xJw-15" edge="1">
          <mxGeometry relative="1" as="geometry" />
        </mxCell>
        <mxCell id="1ih4mLv8TYNWShQSfhKS-1" value="Name" style="swimlane;fontStyle=1;align=center;verticalAlign=top;childLayout=stackLayout;horizontal=1;startSize=26;horizontalStack=0;resizeParent=1;resizeParentMax=0;resizeLast=0;collapsible=1;marginBottom=0;fillColor=#e1d5e7;strokeColor=#9673a6;" parent="1" vertex="1">
          <mxGeometry x="610" y="499" width="160" height="34" as="geometry" />
        </mxCell>
        <mxCell id="1ih4mLv8TYNWShQSfhKS-3" value="" style="line;strokeWidth=1;fillColor=none;align=left;verticalAlign=middle;spacingTop=-1;spacingLeft=3;spacingRight=3;rotatable=0;labelPosition=right;points=[];portConstraint=eastwest;strokeColor=inherit;" parent="1ih4mLv8TYNWShQSfhKS-1" vertex="1">
          <mxGeometry y="26" width="160" height="8" as="geometry" />
        </mxCell>
        <mxCell id="1ih4mLv8TYNWShQSfhKS-30" style="edgeStyle=orthogonalEdgeStyle;rounded=0;orthogonalLoop=1;jettySize=auto;html=1;exitX=0;exitY=0.5;exitDx=0;exitDy=0;entryX=0.994;entryY=0.122;entryDx=0;entryDy=0;entryPerimeter=0;" parent="1" source="1ih4mLv8TYNWShQSfhKS-5" target="ST6IAGIJtiSfXXHStmwK-2" edge="1">
          <mxGeometry relative="1" as="geometry" />
        </mxCell>
        <mxCell id="1ih4mLv8TYNWShQSfhKS-36" style="edgeStyle=orthogonalEdgeStyle;rounded=0;orthogonalLoop=1;jettySize=auto;html=1;exitX=1;exitY=0.5;exitDx=0;exitDy=0;endArrow=block;endFill=0;endSize=17;" parent="1" source="1ih4mLv8TYNWShQSfhKS-5" edge="1">
          <mxGeometry relative="1" as="geometry">
            <mxPoint x="518" y="990" as="targetPoint" />
          </mxGeometry>
        </mxCell>
        <mxCell id="1ih4mLv8TYNWShQSfhKS-5" value="Address" style="swimlane;fontStyle=1;align=center;verticalAlign=top;childLayout=stackLayout;horizontal=1;startSize=26;horizontalStack=0;resizeParent=1;resizeParentMax=0;resizeLast=0;collapsible=1;marginBottom=0;fillColor=#e1d5e7;strokeColor=#9673a6;" parent="1" vertex="1">
          <mxGeometry x="610" y="568" width="160" height="34" as="geometry" />
        </mxCell>
        <mxCell id="1ih4mLv8TYNWShQSfhKS-7" value="" style="line;strokeWidth=1;fillColor=none;align=left;verticalAlign=middle;spacingTop=-1;spacingLeft=3;spacingRight=3;rotatable=0;labelPosition=right;points=[];portConstraint=eastwest;strokeColor=inherit;" parent="1ih4mLv8TYNWShQSfhKS-5" vertex="1">
          <mxGeometry y="26" width="160" height="8" as="geometry" />
        </mxCell>
        <mxCell id="1ih4mLv8TYNWShQSfhKS-9" value="Phone" style="swimlane;fontStyle=1;align=center;verticalAlign=top;childLayout=stackLayout;horizontal=1;startSize=26;horizontalStack=0;resizeParent=1;resizeParentMax=0;resizeLast=0;collapsible=1;marginBottom=0;fillColor=#e1d5e7;strokeColor=#9673a6;" parent="1" vertex="1">
          <mxGeometry x="610" y="628" width="160" height="150" as="geometry" />
        </mxCell>
        <mxCell id="1ih4mLv8TYNWShQSfhKS-10" value="__value&#xa;value" style="text;strokeColor=#666666;fillColor=#f5f5f5;align=left;verticalAlign=top;spacingLeft=4;spacingRight=4;overflow=hidden;rotatable=0;points=[[0,0.5],[1,0.5]];portConstraint=eastwest;fontColor=#333333;" parent="1ih4mLv8TYNWShQSfhKS-9" vertex="1">
          <mxGeometry y="26" width="160" height="44" as="geometry" />
        </mxCell>
        <mxCell id="1ih4mLv8TYNWShQSfhKS-11" value="" style="line;strokeWidth=1;fillColor=none;align=left;verticalAlign=middle;spacingTop=-1;spacingLeft=3;spacingRight=3;rotatable=0;labelPosition=right;points=[];portConstraint=eastwest;strokeColor=inherit;" parent="1ih4mLv8TYNWShQSfhKS-9" vertex="1">
          <mxGeometry y="70" width="160" height="8" as="geometry" />
        </mxCell>
        <mxCell id="1ih4mLv8TYNWShQSfhKS-12" value="__init__&#xa;__repr__&#xa;__str__&#xa;check_phone" style="text;strokeColor=#666666;fillColor=#f5f5f5;align=left;verticalAlign=top;spacingLeft=4;spacingRight=4;overflow=hidden;rotatable=0;points=[[0,0.5],[1,0.5]];portConstraint=eastwest;fontColor=#333333;" parent="1ih4mLv8TYNWShQSfhKS-9" vertex="1">
          <mxGeometry y="78" width="160" height="72" as="geometry" />
        </mxCell>
        <mxCell id="1ih4mLv8TYNWShQSfhKS-13" value="Email" style="swimlane;fontStyle=1;align=center;verticalAlign=top;childLayout=stackLayout;horizontal=1;startSize=26;horizontalStack=0;resizeParent=1;resizeParentMax=0;resizeLast=0;collapsible=1;marginBottom=0;fillColor=#e1d5e7;strokeColor=#9673a6;" parent="1" vertex="1">
          <mxGeometry x="610" y="810" width="160" height="150" as="geometry" />
        </mxCell>
        <mxCell id="1ih4mLv8TYNWShQSfhKS-14" value="__value&#xa;value" style="text;strokeColor=#666666;fillColor=#f5f5f5;align=left;verticalAlign=top;spacingLeft=4;spacingRight=4;overflow=hidden;rotatable=0;points=[[0,0.5],[1,0.5]];portConstraint=eastwest;fontColor=#333333;" parent="1ih4mLv8TYNWShQSfhKS-13" vertex="1">
          <mxGeometry y="26" width="160" height="44" as="geometry" />
        </mxCell>
        <mxCell id="1ih4mLv8TYNWShQSfhKS-15" value="" style="line;strokeWidth=1;fillColor=none;align=left;verticalAlign=middle;spacingTop=-1;spacingLeft=3;spacingRight=3;rotatable=0;labelPosition=right;points=[];portConstraint=eastwest;strokeColor=inherit;" parent="1ih4mLv8TYNWShQSfhKS-13" vertex="1">
          <mxGeometry y="70" width="160" height="8" as="geometry" />
        </mxCell>
        <mxCell id="1ih4mLv8TYNWShQSfhKS-16" value="__init__&#xa;__repr__&#xa;__str__&#xa;check_email" style="text;strokeColor=#666666;fillColor=#f5f5f5;align=left;verticalAlign=top;spacingLeft=4;spacingRight=4;overflow=hidden;rotatable=0;points=[[0,0.5],[1,0.5]];portConstraint=eastwest;fontColor=#333333;" parent="1ih4mLv8TYNWShQSfhKS-13" vertex="1">
          <mxGeometry y="78" width="160" height="72" as="geometry" />
        </mxCell>
        <mxCell id="1ih4mLv8TYNWShQSfhKS-17" value="Birthday" style="swimlane;fontStyle=1;align=center;verticalAlign=top;childLayout=stackLayout;horizontal=1;startSize=26;horizontalStack=0;resizeParent=1;resizeParentMax=0;resizeLast=0;collapsible=1;marginBottom=0;fillColor=#e1d5e7;strokeColor=#9673a6;" parent="1" vertex="1">
          <mxGeometry x="610" y="980" width="160" height="140" as="geometry" />
        </mxCell>
        <mxCell id="1ih4mLv8TYNWShQSfhKS-18" value="__value&#xa;value" style="text;strokeColor=#666666;fillColor=#f5f5f5;align=left;verticalAlign=top;spacingLeft=4;spacingRight=4;overflow=hidden;rotatable=0;points=[[0,0.5],[1,0.5]];portConstraint=eastwest;fontColor=#333333;" parent="1ih4mLv8TYNWShQSfhKS-17" vertex="1">
          <mxGeometry y="26" width="160" height="34" as="geometry" />
        </mxCell>
        <mxCell id="1ih4mLv8TYNWShQSfhKS-19" value="" style="line;strokeWidth=1;fillColor=none;align=left;verticalAlign=middle;spacingTop=-1;spacingLeft=3;spacingRight=3;rotatable=0;labelPosition=right;points=[];portConstraint=eastwest;strokeColor=inherit;" parent="1ih4mLv8TYNWShQSfhKS-17" vertex="1">
          <mxGeometry y="60" width="160" height="8" as="geometry" />
        </mxCell>
        <mxCell id="1ih4mLv8TYNWShQSfhKS-20" value="__init__&#xa;__repr__&#xa;__str__&#xa;check_birthday" style="text;strokeColor=#666666;fillColor=#f5f5f5;align=left;verticalAlign=top;spacingLeft=4;spacingRight=4;overflow=hidden;rotatable=0;points=[[0,0.5],[1,0.5]];portConstraint=eastwest;fontColor=#333333;" parent="1ih4mLv8TYNWShQSfhKS-17" vertex="1">
          <mxGeometry y="68" width="160" height="72" as="geometry" />
        </mxCell>
        <mxCell id="1ih4mLv8TYNWShQSfhKS-25" style="edgeStyle=orthogonalEdgeStyle;rounded=0;orthogonalLoop=1;jettySize=auto;html=1;exitX=0.25;exitY=0;exitDx=0;exitDy=0;entryX=1;entryY=0.119;entryDx=0;entryDy=0;entryPerimeter=0;" parent="1" source="1ih4mLv8TYNWShQSfhKS-21" target="wQMhWt9WpPdBNZ-DjqCI-8" edge="1">
          <mxGeometry relative="1" as="geometry" />
        </mxCell>
        <mxCell id="1ih4mLv8TYNWShQSfhKS-26" style="edgeStyle=orthogonalEdgeStyle;rounded=0;orthogonalLoop=1;jettySize=auto;html=1;exitX=0.25;exitY=0;exitDx=0;exitDy=0;entryX=0.013;entryY=0.308;entryDx=0;entryDy=0;entryPerimeter=0;" parent="1" source="1ih4mLv8TYNWShQSfhKS-21" target="wQMhWt9WpPdBNZ-DjqCI-4" edge="1">
          <mxGeometry relative="1" as="geometry" />
        </mxCell>
        <mxCell id="1ih4mLv8TYNWShQSfhKS-21" value="&lt;b&gt;copy.deepcopy&lt;/b&gt;" style="html=1;fillColor=#e1d5e7;strokeColor=#9673a6;" parent="1" vertex="1">
          <mxGeometry x="370" y="400" width="131" height="30" as="geometry" />
        </mxCell>
        <mxCell id="1ih4mLv8TYNWShQSfhKS-28" style="edgeStyle=orthogonalEdgeStyle;rounded=0;orthogonalLoop=1;jettySize=auto;html=1;exitX=0;exitY=0.5;exitDx=0;exitDy=0;" parent="1" source="1ih4mLv8TYNWShQSfhKS-27" edge="1">
          <mxGeometry relative="1" as="geometry">
            <mxPoint x="610" y="300" as="targetPoint" />
            <Array as="points">
              <mxPoint x="620" y="300" />
              <mxPoint x="620" y="300" />
            </Array>
          </mxGeometry>
        </mxCell>
        <mxCell id="1ih4mLv8TYNWShQSfhKS-27" value="&lt;b&gt;Object&lt;/b&gt;" style="html=1;fillColor=#e1d5e7;strokeColor=#9673a6;" parent="1" vertex="1">
          <mxGeometry x="670" y="280" width="100" height="40" as="geometry" />
        </mxCell>
        <mxCell id="1ih4mLv8TYNWShQSfhKS-31" style="edgeStyle=orthogonalEdgeStyle;rounded=0;orthogonalLoop=1;jettySize=auto;html=1;exitX=0;exitY=0.5;exitDx=0;exitDy=0;entryX=1;entryY=0.5;entryDx=0;entryDy=0;" parent="1" source="1ih4mLv8TYNWShQSfhKS-10" target="ST6IAGIJtiSfXXHStmwK-2" edge="1">
          <mxGeometry relative="1" as="geometry" />
        </mxCell>
        <mxCell id="1ih4mLv8TYNWShQSfhKS-32" style="edgeStyle=orthogonalEdgeStyle;rounded=0;orthogonalLoop=1;jettySize=auto;html=1;exitX=0;exitY=0.5;exitDx=0;exitDy=0;entryX=0.994;entryY=0.5;entryDx=0;entryDy=0;entryPerimeter=0;" parent="1" source="1ih4mLv8TYNWShQSfhKS-12" target="ST6IAGIJtiSfXXHStmwK-3" edge="1">
          <mxGeometry relative="1" as="geometry">
            <mxPoint x="560" y="605" as="targetPoint" />
            <Array as="points">
              <mxPoint x="580" y="742" />
              <mxPoint x="580" y="610" />
            </Array>
          </mxGeometry>
        </mxCell>
        <mxCell id="1ih4mLv8TYNWShQSfhKS-33" style="edgeStyle=orthogonalEdgeStyle;rounded=0;orthogonalLoop=1;jettySize=auto;html=1;exitX=0;exitY=0.5;exitDx=0;exitDy=0;entryX=0.994;entryY=0.296;entryDx=0;entryDy=0;entryPerimeter=0;" parent="1" source="1ih4mLv8TYNWShQSfhKS-14" target="ST6IAGIJtiSfXXHStmwK-4" edge="1">
          <mxGeometry relative="1" as="geometry" />
        </mxCell>
        <mxCell id="1ih4mLv8TYNWShQSfhKS-34" style="edgeStyle=orthogonalEdgeStyle;rounded=0;orthogonalLoop=1;jettySize=auto;html=1;exitX=0;exitY=0.5;exitDx=0;exitDy=0;entryX=1;entryY=0.662;entryDx=0;entryDy=0;entryPerimeter=0;" parent="1" source="1ih4mLv8TYNWShQSfhKS-18" target="ST6IAGIJtiSfXXHStmwK-4" edge="1">
          <mxGeometry relative="1" as="geometry" />
        </mxCell>
        <mxCell id="1ih4mLv8TYNWShQSfhKS-37" style="edgeStyle=orthogonalEdgeStyle;rounded=0;orthogonalLoop=1;jettySize=auto;html=1;exitX=1;exitY=0.5;exitDx=0;exitDy=0;entryX=0.525;entryY=1;entryDx=0;entryDy=0;entryPerimeter=0;endArrow=block;endFill=0;endSize=17;" parent="1" source="1ih4mLv8TYNWShQSfhKS-12" target="tnp_LjGawpypGhr_8xJw-15" edge="1">
          <mxGeometry relative="1" as="geometry" />
        </mxCell>
        <mxCell id="1ih4mLv8TYNWShQSfhKS-38" style="edgeStyle=orthogonalEdgeStyle;rounded=0;orthogonalLoop=1;jettySize=auto;html=1;exitX=0;exitY=0.5;exitDx=0;exitDy=0;endArrow=block;endFill=0;endSize=17;" parent="1" source="1ih4mLv8TYNWShQSfhKS-16" edge="1">
          <mxGeometry relative="1" as="geometry">
            <mxPoint x="470" y="990" as="targetPoint" />
            <Array as="points">
              <mxPoint x="470" y="924" />
              <mxPoint x="470" y="990" />
            </Array>
          </mxGeometry>
        </mxCell>
        <mxCell id="1ih4mLv8TYNWShQSfhKS-40" style="edgeStyle=orthogonalEdgeStyle;rounded=0;orthogonalLoop=1;jettySize=auto;html=1;exitX=0;exitY=0.5;exitDx=0;exitDy=0;entryX=1;entryY=0.308;entryDx=0;entryDy=0;entryPerimeter=0;endArrow=block;endFill=0;endSize=17;" parent="1" source="1ih4mLv8TYNWShQSfhKS-20" target="tnp_LjGawpypGhr_8xJw-15" edge="1">
          <mxGeometry relative="1" as="geometry" />
        </mxCell>
        <mxCell id="1ih4mLv8TYNWShQSfhKS-42" style="edgeStyle=orthogonalEdgeStyle;rounded=0;orthogonalLoop=1;jettySize=auto;html=1;exitX=0;exitY=0.5;exitDx=0;exitDy=0;endArrow=classic;endFill=1;endSize=6;" parent="1" source="1ih4mLv8TYNWShQSfhKS-41" target="wQMhWt9WpPdBNZ-DjqCI-8" edge="1">
          <mxGeometry relative="1" as="geometry" />
        </mxCell>
        <mxCell id="1ih4mLv8TYNWShQSfhKS-43" style="edgeStyle=orthogonalEdgeStyle;rounded=0;orthogonalLoop=1;jettySize=auto;html=1;exitX=1;exitY=0.5;exitDx=0;exitDy=0;endArrow=classic;endFill=1;endSize=6;" parent="1" source="1ih4mLv8TYNWShQSfhKS-41" edge="1">
          <mxGeometry relative="1" as="geometry">
            <mxPoint x="552" y="390" as="targetPoint" />
          </mxGeometry>
        </mxCell>
        <mxCell id="1ih4mLv8TYNWShQSfhKS-41" value="&lt;b&gt;pickle.load&lt;/b&gt;" style="html=1;fillColor=#e1d5e7;strokeColor=#9673a6;" parent="1" vertex="1">
          <mxGeometry x="370" y="440" width="130" height="30" as="geometry" />
        </mxCell>
        <mxCell id="1ih4mLv8TYNWShQSfhKS-70" style="edgeStyle=orthogonalEdgeStyle;rounded=0;orthogonalLoop=1;jettySize=auto;html=1;exitX=0.5;exitY=0;exitDx=0;exitDy=0;entryX=0.5;entryY=1;entryDx=0;entryDy=0;entryPerimeter=0;endArrow=classic;endFill=1;endSize=6;" parent="1" source="1ih4mLv8TYNWShQSfhKS-44" target="wQMhWt9WpPdBNZ-DjqCI-8" edge="1">
          <mxGeometry relative="1" as="geometry" />
        </mxCell>
        <mxCell id="1ih4mLv8TYNWShQSfhKS-44" value="RecordNote" style="swimlane;fontStyle=1;align=center;verticalAlign=top;childLayout=stackLayout;horizontal=1;startSize=26;horizontalStack=0;resizeParent=1;resizeParentMax=0;resizeLast=0;collapsible=1;marginBottom=0;fillColor=#e1d5e7;strokeColor=#9673a6;" parent="1" vertex="1">
          <mxGeometry x="170" y="630" width="160" height="150" as="geometry" />
        </mxCell>
        <mxCell id="1ih4mLv8TYNWShQSfhKS-45" value="name&#xa;note&#xa;ctatus&#xa;tags" style="text;align=left;verticalAlign=top;spacingLeft=4;spacingRight=4;overflow=hidden;rotatable=0;points=[[0,0.5],[1,0.5]];portConstraint=eastwest;fillColor=#f5f5f5;fontColor=#333333;strokeColor=#666666;" parent="1ih4mLv8TYNWShQSfhKS-44" vertex="1">
          <mxGeometry y="26" width="160" height="64" as="geometry" />
        </mxCell>
        <mxCell id="1ih4mLv8TYNWShQSfhKS-46" value="" style="line;strokeWidth=1;fillColor=none;align=left;verticalAlign=middle;spacingTop=-1;spacingLeft=3;spacingRight=3;rotatable=0;labelPosition=right;points=[];portConstraint=eastwest;strokeColor=inherit;" parent="1ih4mLv8TYNWShQSfhKS-44" vertex="1">
          <mxGeometry y="90" width="160" height="8" as="geometry" />
        </mxCell>
        <mxCell id="1ih4mLv8TYNWShQSfhKS-47" value="__init__&#xa;__repr__&#xa;__str__" style="text;strokeColor=#666666;fillColor=#f5f5f5;align=left;verticalAlign=top;spacingLeft=4;spacingRight=4;overflow=hidden;rotatable=0;points=[[0,0.5],[1,0.5]];portConstraint=eastwest;fontColor=#333333;" parent="1ih4mLv8TYNWShQSfhKS-44" vertex="1">
          <mxGeometry y="98" width="160" height="52" as="geometry" />
        </mxCell>
        <mxCell id="1ih4mLv8TYNWShQSfhKS-62" style="edgeStyle=orthogonalEdgeStyle;rounded=0;orthogonalLoop=1;jettySize=auto;html=1;exitX=0.5;exitY=0;exitDx=0;exitDy=0;entryX=0.5;entryY=1;entryDx=0;entryDy=0;entryPerimeter=0;endArrow=classic;endFill=1;endSize=6;" parent="1" source="1ih4mLv8TYNWShQSfhKS-48" target="1ih4mLv8TYNWShQSfhKS-47" edge="1">
          <mxGeometry relative="1" as="geometry" />
        </mxCell>
        <mxCell id="1ih4mLv8TYNWShQSfhKS-48" value="Notes" style="swimlane;fontStyle=1;align=center;verticalAlign=top;childLayout=stackLayout;horizontal=1;startSize=26;horizontalStack=0;resizeParent=1;resizeParentMax=0;resizeLast=0;collapsible=1;marginBottom=0;fillColor=#e1d5e7;strokeColor=#9673a6;" parent="1" vertex="1">
          <mxGeometry x="20" y="850" width="130" height="86" as="geometry" />
        </mxCell>
        <mxCell id="1ih4mLv8TYNWShQSfhKS-49" value="value" style="text;align=left;verticalAlign=top;spacingLeft=4;spacingRight=4;overflow=hidden;rotatable=0;points=[[0,0.5],[1,0.5]];portConstraint=eastwest;fillColor=#f5f5f5;fontColor=#333333;strokeColor=#666666;" parent="1ih4mLv8TYNWShQSfhKS-48" vertex="1">
          <mxGeometry y="26" width="130" height="26" as="geometry" />
        </mxCell>
        <mxCell id="1ih4mLv8TYNWShQSfhKS-50" value="" style="line;strokeWidth=1;fillColor=none;align=left;verticalAlign=middle;spacingTop=-1;spacingLeft=3;spacingRight=3;rotatable=0;labelPosition=right;points=[];portConstraint=eastwest;strokeColor=inherit;" parent="1ih4mLv8TYNWShQSfhKS-48" vertex="1">
          <mxGeometry y="52" width="130" height="8" as="geometry" />
        </mxCell>
        <mxCell id="1ih4mLv8TYNWShQSfhKS-51" value="__init__" style="text;strokeColor=#666666;fillColor=#f5f5f5;align=left;verticalAlign=top;spacingLeft=4;spacingRight=4;overflow=hidden;rotatable=0;points=[[0,0.5],[1,0.5]];portConstraint=eastwest;fontColor=#333333;" parent="1ih4mLv8TYNWShQSfhKS-48" vertex="1">
          <mxGeometry y="60" width="130" height="26" as="geometry" />
        </mxCell>
        <mxCell id="1ih4mLv8TYNWShQSfhKS-61" style="edgeStyle=orthogonalEdgeStyle;rounded=0;orthogonalLoop=1;jettySize=auto;html=1;exitX=0.5;exitY=0;exitDx=0;exitDy=0;endArrow=classic;endFill=1;endSize=6;" parent="1" source="1ih4mLv8TYNWShQSfhKS-52" edge="1">
          <mxGeometry relative="1" as="geometry">
            <mxPoint x="250" y="780" as="targetPoint" />
          </mxGeometry>
        </mxCell>
        <mxCell id="1ih4mLv8TYNWShQSfhKS-52" value="Tags" style="swimlane;fontStyle=1;align=center;verticalAlign=top;childLayout=stackLayout;horizontal=1;startSize=26;horizontalStack=0;resizeParent=1;resizeParentMax=0;resizeLast=0;collapsible=1;marginBottom=0;fillColor=#e1d5e7;strokeColor=#9673a6;" parent="1" vertex="1">
          <mxGeometry x="190" y="850" width="120" height="100" as="geometry" />
        </mxCell>
        <mxCell id="1ih4mLv8TYNWShQSfhKS-53" value="value" style="text;strokeColor=#666666;fillColor=#f5f5f5;align=left;verticalAlign=top;spacingLeft=4;spacingRight=4;overflow=hidden;rotatable=0;points=[[0,0.5],[1,0.5]];portConstraint=eastwest;fontColor=#333333;" parent="1ih4mLv8TYNWShQSfhKS-52" vertex="1">
          <mxGeometry y="26" width="120" height="26" as="geometry" />
        </mxCell>
        <mxCell id="1ih4mLv8TYNWShQSfhKS-54" value="" style="line;strokeWidth=1;fillColor=none;align=left;verticalAlign=middle;spacingTop=-1;spacingLeft=3;spacingRight=3;rotatable=0;labelPosition=right;points=[];portConstraint=eastwest;strokeColor=inherit;" parent="1ih4mLv8TYNWShQSfhKS-52" vertex="1">
          <mxGeometry y="52" width="120" height="8" as="geometry" />
        </mxCell>
        <mxCell id="1ih4mLv8TYNWShQSfhKS-55" value="__init__&#xa;__repr__" style="text;strokeColor=#666666;fillColor=#f5f5f5;align=left;verticalAlign=top;spacingLeft=4;spacingRight=4;overflow=hidden;rotatable=0;points=[[0,0.5],[1,0.5]];portConstraint=eastwest;fontColor=#333333;" parent="1ih4mLv8TYNWShQSfhKS-52" vertex="1">
          <mxGeometry y="60" width="120" height="40" as="geometry" />
        </mxCell>
        <mxCell id="1ih4mLv8TYNWShQSfhKS-60" style="edgeStyle=orthogonalEdgeStyle;rounded=0;orthogonalLoop=1;jettySize=auto;html=1;exitX=0.5;exitY=0;exitDx=0;exitDy=0;endArrow=classic;endFill=1;endSize=6;" parent="1" source="1ih4mLv8TYNWShQSfhKS-56" edge="1">
          <mxGeometry relative="1" as="geometry">
            <mxPoint x="250" y="780" as="targetPoint" />
          </mxGeometry>
        </mxCell>
        <mxCell id="1ih4mLv8TYNWShQSfhKS-56" value="Status" style="swimlane;fontStyle=1;align=center;verticalAlign=top;childLayout=stackLayout;horizontal=1;startSize=26;horizontalStack=0;resizeParent=1;resizeParentMax=0;resizeLast=0;collapsible=1;marginBottom=0;fillColor=#e1d5e7;strokeColor=#9673a6;" parent="1" vertex="1">
          <mxGeometry x="345.5" y="850" width="104.5" height="100" as="geometry" />
        </mxCell>
        <mxCell id="1ih4mLv8TYNWShQSfhKS-57" value="value" style="text;strokeColor=#666666;fillColor=#f5f5f5;align=left;verticalAlign=top;spacingLeft=4;spacingRight=4;overflow=hidden;rotatable=0;points=[[0,0.5],[1,0.5]];portConstraint=eastwest;fontColor=#333333;" parent="1ih4mLv8TYNWShQSfhKS-56" vertex="1">
          <mxGeometry y="26" width="104.5" height="26" as="geometry" />
        </mxCell>
        <mxCell id="1ih4mLv8TYNWShQSfhKS-58" value="" style="line;strokeWidth=1;fillColor=none;align=left;verticalAlign=middle;spacingTop=-1;spacingLeft=3;spacingRight=3;rotatable=0;labelPosition=right;points=[];portConstraint=eastwest;strokeColor=inherit;" parent="1ih4mLv8TYNWShQSfhKS-56" vertex="1">
          <mxGeometry y="52" width="104.5" height="8" as="geometry" />
        </mxCell>
        <mxCell id="1ih4mLv8TYNWShQSfhKS-59" value="__init__&#xa;__repr__" style="text;strokeColor=#666666;fillColor=#f5f5f5;align=left;verticalAlign=top;spacingLeft=4;spacingRight=4;overflow=hidden;rotatable=0;points=[[0,0.5],[1,0.5]];portConstraint=eastwest;fontColor=#333333;" parent="1ih4mLv8TYNWShQSfhKS-56" vertex="1">
          <mxGeometry y="60" width="104.5" height="40" as="geometry" />
        </mxCell>
        <mxCell id="1ih4mLv8TYNWShQSfhKS-63" value="NoteName" style="swimlane;fontStyle=1;align=center;verticalAlign=top;childLayout=stackLayout;horizontal=1;startSize=26;horizontalStack=0;resizeParent=1;resizeParentMax=0;resizeLast=0;collapsible=1;marginBottom=0;fillColor=#e1d5e7;strokeColor=#9673a6;" parent="1" vertex="1">
          <mxGeometry x="20" y="670" width="130" height="110" as="geometry" />
        </mxCell>
        <mxCell id="1ih4mLv8TYNWShQSfhKS-64" value="value" style="text;strokeColor=#666666;fillColor=#f5f5f5;align=left;verticalAlign=top;spacingLeft=4;spacingRight=4;overflow=hidden;rotatable=0;points=[[0,0.5],[1,0.5]];portConstraint=eastwest;fontColor=#333333;" parent="1ih4mLv8TYNWShQSfhKS-63" vertex="1">
          <mxGeometry y="26" width="130" height="26" as="geometry" />
        </mxCell>
        <mxCell id="1ih4mLv8TYNWShQSfhKS-65" value="" style="line;strokeWidth=1;fillColor=none;align=left;verticalAlign=middle;spacingTop=-1;spacingLeft=3;spacingRight=3;rotatable=0;labelPosition=right;points=[];portConstraint=eastwest;strokeColor=inherit;" parent="1ih4mLv8TYNWShQSfhKS-63" vertex="1">
          <mxGeometry y="52" width="130" height="8" as="geometry" />
        </mxCell>
        <mxCell id="1ih4mLv8TYNWShQSfhKS-66" value="__init__&#xa;__repr__" style="text;strokeColor=#666666;fillColor=#f5f5f5;align=left;verticalAlign=top;spacingLeft=4;spacingRight=4;overflow=hidden;rotatable=0;points=[[0,0.5],[1,0.5]];portConstraint=eastwest;fontColor=#333333;" parent="1ih4mLv8TYNWShQSfhKS-63" vertex="1">
          <mxGeometry y="60" width="130" height="50" as="geometry" />
        </mxCell>
        <mxCell id="1ih4mLv8TYNWShQSfhKS-69" value="" style="endArrow=none;html=1;rounded=0;endSize=6;exitX=0.5;exitY=0;exitDx=0;exitDy=0;" parent="1" source="1ih4mLv8TYNWShQSfhKS-48" edge="1">
          <mxGeometry width="50" height="50" relative="1" as="geometry">
            <mxPoint x="84.5" y="840" as="sourcePoint" />
            <mxPoint x="84.5" y="780" as="targetPoint" />
          </mxGeometry>
        </mxCell>
      </root>
    </mxGraphModel>
  </diagram>
</mxfile>
